<?xml version="1.0" encoding="utf-8"?>
<!-- Generator: Adobe Illustrator 25.0.0, SVG Export Plug-In . SVG Version: 6.00 Build 0)  -->
<svg version="1.1" id="Layer_1" xmlns="http://www.w3.org/2000/svg" xmlns:xlink="http://www.w3.org/1999/xlink" x="0px" y="0px"
	 width="540px" height="275px" viewBox="0 0 540 275" style="enable-background:new 0 0 540 275;" xml:space="preserve">
<style type="text/css">
	.st0{fill:none;stroke:#B71313;stroke-width:0.6537;stroke-miterlimit:10;}
	.st1{fill:#B71313;}
	.st2{enable-background:new    ;}
	.st3{fill:#FF8500;stroke:#000000;stroke-width:4.1729;stroke-miterlimit:10;}
	.st4{fill:#FF0DDD;stroke:#000000;stroke-width:4.1729;stroke-miterlimit:10;}
</style>
<g>
	<g>
		<line class="st0" x1="98.2" y1="40.6" x2="98.2" y2="188.7"/>
		<g>
			<polygon class="st1" points="95.7,42.4 98.2,41.4 100.6,42.4 98.2,36.7 			"/>
		</g>
		<g>
			<path class="st1" d="M98.2,192.6c-0.7-1.9-1.9-4.2-3.1-5.6l3.1,1.1l3.1-1.1C100,188.5,98.9,190.8,98.2,192.6z"/>
		</g>
	</g>
</g>
<g>
	<g>
		<line class="st0" x1="226.6" y1="40.6" x2="226.5" y2="234.9"/>
		<g>
			<polygon class="st1" points="224.2,42.4 226.6,41.4 229,42.4 226.6,36.7 			"/>
		</g>
		<g>
			<path class="st1" d="M226.5,238.9c-0.7-1.9-1.9-4.2-3.1-5.6l3.1,1.1l3.1-1.1C228.4,234.7,227.2,237,226.5,238.9z"/>
		</g>
	</g>
</g>
<g class="st2">
	<path d="M56.7,105.2c0-1.3,0.8-2,1.1-2.2c0.1-0.1,0.2-0.1,0.3,0l0.1,0.2c0.1,0.1,0,0.2-0.1,0.3c-0.1,0.1-0.8,0.5-0.9,1.5
		c0,0.2,0,0.4,0.1,0.6c0.1,0,0.2-0.1,0.3-0.1c0.4,0,0.6,0.3,0.6,0.6c0,0.4-0.3,0.6-0.7,0.6C57.1,106.7,56.7,106.2,56.7,105.2z"/>
	<path d="M60.4,118.6c0,0.1-0.1,0.2-0.2,0.2H60c-0.1,0-0.2-0.1-0.2-0.2V108c0-0.1,0.1-0.2,0.2-0.2h0.2c0.1,0,0.2,0,0.2,0.2l0,0.4
		c0.2-0.2,0.9-0.8,2.1-0.8c1.7,0,3,1.5,3,3.3c0,1.9-1.3,3.3-3.2,3.3c-1,0-1.7-0.5-1.9-0.6V118.6z M62.2,113.6c1.5,0,2.6-1.2,2.6-2.7
		c0-1.5-1-2.6-2.4-2.6c-1.2,0-1.9,0.8-1.9,0.9v3.7C60.5,112.9,61.2,113.6,62.2,113.6z"/>
	<path d="M66.5,106.4c-0.1-0.1,0-0.2,0.1-0.3c0.1-0.1,0.8-0.5,0.9-1.5c0-0.2,0-0.4-0.1-0.6c-0.1,0-0.2,0.1-0.3,0.1
		c-0.4,0-0.6-0.3-0.6-0.6c0-0.4,0.3-0.6,0.7-0.6c0.5,0,0.9,0.4,0.9,1.5c0,1.3-0.8,2-1.1,2.2c-0.1,0.1-0.2,0.1-0.3,0L66.5,106.4z"/>
	<path d="M73.6,108.4h-0.9c-0.1,0-0.2-0.1-0.2-0.2V108c0-0.1,0.1-0.2,0.2-0.2h0.9v-2.1c0-1.9,1-2.7,2.4-2.7c0.8,0,1.5,0.4,1.8,0.7
		c0.1,0.1,0.1,0.2,0,0.3l-0.2,0.2c-0.1,0.1-0.2,0.1-0.3,0c-0.2-0.2-0.8-0.5-1.4-0.5c-1,0-1.7,0.6-1.7,2.1v2.1h2.3
		c0.1,0,0.2,0.1,0.2,0.2v0.2c0,0.1-0.1,0.2-0.2,0.2h-2.3v5.5c0,0.1-0.1,0.2-0.2,0.2h-0.3c-0.1,0-0.2-0.1-0.2-0.2V108.4z"/>
	<path d="M80.8,107.6c1.8,0,3.2,1.5,3.2,3.3c0,1.8-1.4,3.3-3.2,3.3c-1.8,0-3.2-1.5-3.2-3.3C77.6,109.1,79,107.6,80.8,107.6z
		 M80.8,113.6c1.4,0,2.5-1.2,2.5-2.7c0-1.4-1.1-2.6-2.5-2.6c-1.4,0-2.5,1.2-2.5,2.6C78.3,112.4,79.4,113.6,80.8,113.6z"/>
	<path d="M85.9,108c0-0.1,0.1-0.2,0.2-0.2h0.2c0.1,0,0.2,0.1,0.2,0.2l0.1,0.6c0.2-0.2,0.8-1,2-1c0.5,0,0.8,0.1,1,0.2
		c0.1,0,0.2,0.2,0.2,0.3l-0.1,0.3c0,0.1-0.1,0.1-0.3,0.1c-0.1,0-0.4-0.2-0.8-0.2c-1.2,0-1.8,1-1.9,1.1v4.5c0,0.1-0.1,0.2-0.2,0.2H86
		c-0.1,0-0.2-0.1-0.2-0.2V108z"/>
</g>
<g class="st2">
	<path d="M37.4,137.4c0,0.1-0.1,0.2-0.2,0.2h-0.3c-0.1,0-0.2-0.1-0.2-0.2v-10.6c0-0.1,0.1-0.2,0.2-0.2h0.2c0.1,0,0.2,0,0.2,0.2
		l0,0.4c0.2-0.2,0.9-0.8,2.1-0.8c1.7,0,3,1.5,3,3.3c0,1.9-1.3,3.3-3.2,3.3c-1,0-1.7-0.5-1.9-0.6V137.4z M39.2,132.4
		c1.5,0,2.6-1.2,2.6-2.7c0-1.5-1-2.6-2.4-2.6c-1.2,0-1.9,0.8-1.9,0.9v3.7C37.4,131.7,38.1,132.4,39.2,132.4z"/>
	<path d="M46.5,128.8c0.7,0,1.4,0.2,1.6,0.3c0-1.4-0.1-2.1-1.4-2.1c-1,0-1.7,0.4-1.9,0.4c-0.1,0-0.2,0-0.2-0.1l-0.1-0.2
		c0-0.1,0-0.2,0.1-0.2c0,0,0.8-0.5,2.1-0.5c1.9,0,2,1.1,2,2.7v3.5c0,0.1-0.1,0.2-0.2,0.2h-0.2c-0.1,0-0.2-0.1-0.2-0.2l-0.1-0.6
		c-0.4,0.4-1.2,0.9-2.2,0.9c-1.2,0-2.1-0.8-2.1-2.1C43.9,129.7,44.8,128.8,46.5,128.8z M46,132.4c1,0,1.8-0.6,2.1-1v-1.7
		c-0.2-0.1-0.8-0.3-1.6-0.3c-1.2,0-2,0.6-2,1.5C44.5,131.8,45.1,132.4,46,132.4z"/>
	<path d="M51.7,137.4c0,0.1-0.1,0.2-0.2,0.2h-0.3c-0.1,0-0.2-0.1-0.2-0.2v-10.6c0-0.1,0.1-0.2,0.2-0.2h0.2c0.1,0,0.2,0,0.2,0.2
		l0,0.4c0.2-0.2,0.9-0.8,2.1-0.8c1.7,0,3,1.5,3,3.3c0,1.9-1.3,3.3-3.2,3.3c-1,0-1.7-0.5-1.9-0.6V137.4z M53.5,132.4
		c1.5,0,2.6-1.2,2.6-2.7c0-1.5-1-2.6-2.4-2.6c-1.2,0-1.9,0.8-1.9,0.9v3.7C51.8,131.7,52.5,132.4,53.5,132.4z"/>
	<path d="M60.8,128.8c0.7,0,1.4,0.2,1.6,0.3c0-1.4-0.1-2.1-1.4-2.1c-1,0-1.7,0.4-1.9,0.4c-0.1,0-0.2,0-0.2-0.1l-0.1-0.2
		c0-0.1,0-0.2,0.1-0.2c0,0,0.8-0.5,2.1-0.5c1.9,0,2,1.1,2,2.7v3.5c0,0.1-0.1,0.2-0.2,0.2h-0.2c-0.1,0-0.2-0.1-0.2-0.2l-0.1-0.6
		c-0.4,0.4-1.2,0.9-2.2,0.9c-1.2,0-2.1-0.8-2.1-2.1C58.2,129.7,59.2,128.8,60.8,128.8z M60.3,132.4c1,0,1.8-0.6,2.1-1v-1.7
		c-0.2-0.1-0.8-0.3-1.6-0.3c-1.2,0-2,0.6-2,1.5C58.8,131.8,59.5,132.4,60.3,132.4z"/>
	<path d="M65.4,126.8c0-0.1,0.1-0.2,0.2-0.2h0.2c0.1,0,0.2,0.1,0.2,0.2l0.1,0.6c0.2-0.2,0.8-1,2-1c0.5,0,0.8,0.1,1,0.2
		c0.1,0,0.2,0.2,0.2,0.3l-0.1,0.3c0,0.1-0.1,0.1-0.3,0.1c-0.1,0-0.4-0.2-0.8-0.2c-1.2,0-1.8,1-1.9,1.1v4.5c0,0.1-0.1,0.2-0.2,0.2
		h-0.3c-0.1,0-0.2-0.1-0.2-0.2V126.8z"/>
	<path d="M72.6,128.8c0.7,0,1.4,0.2,1.6,0.3c0-1.4-0.1-2.1-1.4-2.1c-1,0-1.7,0.4-1.9,0.4c-0.1,0-0.2,0-0.2-0.1l-0.1-0.2
		c0-0.1,0-0.2,0.1-0.2c0,0,0.8-0.5,2.1-0.5c1.9,0,2,1.1,2,2.7v3.5c0,0.1-0.1,0.2-0.2,0.2h-0.2c-0.1,0-0.2-0.1-0.2-0.2l-0.1-0.6
		c-0.4,0.4-1.2,0.9-2.2,0.9c-1.2,0-2.1-0.8-2.1-2.1C70,129.7,71,128.8,72.6,128.8z M72.1,132.4c1,0,1.8-0.6,2.1-1v-1.7
		c-0.2-0.1-0.8-0.3-1.6-0.3c-1.2,0-2,0.6-2,1.5C70.6,131.8,71.3,132.4,72.1,132.4z"/>
	<path d="M76.5,132.5l3.7-5.3v0H77c-0.1,0-0.2-0.1-0.2-0.2v-0.2c0-0.1,0.1-0.2,0.2-0.2h4.1c0.2,0,0.3,0.2,0.2,0.3l-3.7,5.3v0h3.2
		c0.1,0,0.2,0.1,0.2,0.2v0.2c0,0.1-0.1,0.2-0.2,0.2h-4.1c-0.1,0-0.2-0.1-0.2-0.2V132.5z"/>
	<path d="M82.3,132.5l3.7-5.3v0h-3.2c-0.1,0-0.2-0.1-0.2-0.2v-0.2c0-0.1,0.1-0.2,0.2-0.2h4.1c0.2,0,0.3,0.2,0.2,0.3l-3.7,5.3v0h3.2
		c0.1,0,0.2,0.1,0.2,0.2v0.2c0,0.1-0.1,0.2-0.2,0.2h-4.1c-0.1,0-0.2-0.1-0.2-0.2V132.5z"/>
	<path d="M88.6,123c0-0.3,0.2-0.5,0.5-0.5c0.3,0,0.5,0.3,0.5,0.5c0,0.3-0.2,0.5-0.5,0.5C88.9,123.5,88.6,123.3,88.6,123z
		 M88.8,126.8c0-0.1,0.1-0.2,0.2-0.2h0.3c0.1,0,0.2,0.1,0.2,0.2v5.9c0,0.1-0.1,0.2-0.2,0.2H89c-0.1,0-0.2-0.1-0.2-0.2V126.8z"/>
</g>
<g class="st2">
	<path d="M231.8,51.5H231c-0.2,0-0.2-0.1-0.2-0.2v-0.3c0-0.1,0.1-0.2,0.2-0.2h0.7v-1.7c0-0.1,0.1-0.2,0.2-0.2l0.3,0
		c0.1,0,0.2,0.1,0.2,0.2v1.7h2.2c0.1,0,0.2,0.1,0.2,0.2v0.2c0,0.1-0.1,0.2-0.2,0.2h-2.2v4c0,0.7,0.1,1.1,0.8,1.1
		c0.5,0,1.2-0.3,1.4-0.4c0.1-0.1,0.2,0,0.3,0.1l0.1,0.2c0.1,0.1,0,0.2,0,0.3c-0.2,0.2-0.9,0.6-1.8,0.6c-1.3,0-1.4-0.8-1.4-1.8V51.5z
		"/>
	<path d="M236.5,47.3c0-0.3,0.2-0.5,0.5-0.5s0.5,0.3,0.5,0.5c0,0.3-0.2,0.5-0.5,0.5S236.5,47.6,236.5,47.3z M236.7,51.1
		c0-0.1,0.1-0.2,0.2-0.2h0.3c0.1,0,0.2,0.1,0.2,0.2V57c0,0.1-0.1,0.2-0.2,0.2h-0.3c-0.1,0-0.2-0.1-0.2-0.2V51.1z"/>
	<path d="M242.6,50.8c1.2,0,2,0.6,2.3,1c0.1,0.1,0.1,0.2,0,0.3l-0.2,0.2c-0.1,0.1-0.2,0.1-0.3,0c-0.2-0.2-0.8-0.7-1.8-0.7
		c-1.4,0-2.6,1.1-2.6,2.6c0,1.5,1.2,2.7,2.6,2.7c1.2,0,1.8-0.7,2-0.9c0.1-0.1,0.2-0.1,0.3,0l0.2,0.2c0.1,0.1,0.1,0.2,0,0.3
		c-0.2,0.4-1.2,1.2-2.5,1.2c-1.8,0-3.3-1.4-3.3-3.3C239.3,52.2,240.8,50.8,242.6,50.8z"/>
	<path d="M246.9,46.4c0-0.1,0.1-0.2,0.2-0.2h0.3c0.1,0,0.2,0.1,0.2,0.2v7L251,51c0.1-0.1,0.2-0.1,0.3-0.1h0.5c0.2,0,0.2,0.2,0,0.3
		l-3.4,2.5l3.8,3.2c0.1,0.1,0,0.3-0.1,0.3h-0.5c-0.1,0-0.2,0-0.3-0.1l-3.6-3.1v3c0,0.1-0.1,0.2-0.2,0.2h-0.3c-0.1,0-0.2-0.1-0.2-0.2
		V46.4z"/>
	<path d="M256.1,50.8c1.6,0,2.8,1.2,2.8,2.9c0,0.3,0,0.6-0.2,0.6h-5c0.1,1.3,1,2.5,2.4,2.5c0.8,0,1.5-0.3,1.9-0.6
		c0.1-0.1,0.2-0.1,0.3,0l0.2,0.2c0,0.1,0,0.2-0.1,0.3c-0.3,0.3-1.3,0.7-2.3,0.7c-1.9,0-3.1-1.5-3.1-3.3
		C253.1,52.3,254.2,50.8,256.1,50.8z M258.3,53.7c0-1.2-0.7-2.3-2.1-2.3c-1.4,0-2.3,1-2.4,2.3H258.3z"/>
	<path d="M261.1,51.5h-0.7c-0.2,0-0.2-0.1-0.2-0.2v-0.3c0-0.1,0.1-0.2,0.2-0.2h0.7v-1.7c0-0.1,0.1-0.2,0.2-0.2l0.3,0
		c0.1,0,0.2,0.1,0.2,0.2v1.7h2.2c0.1,0,0.2,0.1,0.2,0.2v0.2c0,0.1-0.1,0.2-0.2,0.2h-2.2v4c0,0.7,0.1,1.1,0.8,1.1
		c0.5,0,1.2-0.3,1.4-0.4c0.1-0.1,0.2,0,0.3,0.1l0.1,0.2c0.1,0.1,0,0.2,0,0.3c-0.2,0.2-0.9,0.6-1.8,0.6c-1.3,0-1.4-0.8-1.4-1.8V51.5z
		"/>
</g>
<g class="st2">
	<path d="M231.1,75.2l0.2-0.3c0-0.1,0.2-0.1,0.3,0c0.2,0.1,0.8,0.6,1.7,0.6c0.9,0,1.5-0.5,1.5-1.1c0-0.7-0.7-1-1.8-1.4
		c-1.1-0.4-1.9-0.9-1.9-1.9c0-0.7,0.6-1.6,2.1-1.6c0.8,0,1.5,0.3,1.8,0.5c0.1,0.1,0.1,0.2,0.1,0.3l-0.1,0.2
		c-0.1,0.1-0.2,0.1-0.3,0.1c-0.1-0.1-0.8-0.4-1.4-0.4c-1,0-1.3,0.6-1.3,1c0,0.6,0.6,0.9,1.5,1.3c1.2,0.4,2.2,0.8,2.2,2
		c0,0.9-1,1.7-2.2,1.7c-1.1,0-1.7-0.4-2.1-0.7C231.1,75.4,231.1,75.3,231.1,75.2z"/>
	<path d="M237.6,70.3h-0.7c-0.2,0-0.2-0.1-0.2-0.2v-0.3c0-0.1,0.1-0.2,0.2-0.2h0.7V68c0-0.1,0.1-0.2,0.2-0.2l0.3,0
		c0.1,0,0.2,0.1,0.2,0.2v1.7h2.2c0.1,0,0.2,0.1,0.2,0.2v0.2c0,0.1-0.1,0.2-0.2,0.2h-2.2v4c0,0.7,0.1,1.1,0.8,1.1
		c0.5,0,1.2-0.3,1.4-0.4c0.1-0.1,0.2,0,0.3,0.1l0.1,0.2c0.1,0.1,0,0.2,0,0.3c-0.2,0.2-0.9,0.6-1.8,0.6c-1.3,0-1.4-0.8-1.4-1.8V70.3z
		"/>
	<path d="M242.4,69.9c0-0.1,0.1-0.2,0.2-0.2h0.3c0.1,0,0.2,0.1,0.2,0.2v3.4c0,1.5,0.7,2.2,1.9,2.2c1.3,0,2-1,2.1-1.1v-4.5
		c0-0.1,0.1-0.2,0.2-0.2h0.3c0.1,0,0.2,0.1,0.2,0.2v5.9c0,0.1-0.1,0.2-0.2,0.2h-0.2c-0.1,0-0.2-0.1-0.2-0.2l-0.1-0.6
		c-0.2,0.2-0.9,1-2.2,1c-1.8,0-2.5-1.1-2.5-2.9V69.9z"/>
	<path d="M250.1,65.2c0-0.1,0.1-0.2,0.2-0.2h0.3c0.1,0,0.2,0.1,0.2,0.2v5c0,0,0.8-0.6,1.9-0.6c1.8,0,3.1,1.4,3.1,3.3
		c0,1.8-1.3,3.3-2.9,3.3c-1.2,0-2-0.7-2.2-0.9l0,0.6c0,0.1-0.1,0.2-0.2,0.2h-0.2c-0.1,0-0.2-0.1-0.2-0.2V65.2z M252.8,75.5
		c1.3,0,2.3-1.2,2.3-2.7c0-1.5-1-2.6-2.5-2.6c-1.1,0-1.9,0.7-1.9,0.7v3.5C250.8,74.5,251.5,75.5,252.8,75.5z"/>
</g>
<g class="st2">
	<path d="M95.7,205.5H95c-0.2,0-0.2-0.1-0.2-0.2V205c0-0.1,0.1-0.2,0.2-0.2h0.7v-1.7c0-0.1,0.1-0.2,0.2-0.2l0.3,0
		c0.1,0,0.2,0.1,0.2,0.2v1.7h2.2c0.1,0,0.2,0.1,0.2,0.2v0.2c0,0.1-0.1,0.2-0.2,0.2h-2.2v4c0,0.7,0.1,1.1,0.8,1.1
		c0.5,0,1.2-0.3,1.4-0.4c0.1-0.1,0.2,0,0.3,0.1l0.1,0.2c0.1,0.1,0,0.2,0,0.3c-0.2,0.2-0.9,0.6-1.8,0.6c-1.3,0-1.4-0.8-1.4-1.8V205.5
		z"/>
	<path d="M100.6,200.4c0-0.1,0.1-0.2,0.2-0.2h0.3c0.1,0,0.2,0.1,0.2,0.2v5.3c0.2-0.2,1-1,2.3-1c1.6,0,2.5,1,2.5,2.9v3.4
		c0,0.1-0.1,0.2-0.2,0.2h-0.3c-0.1,0-0.2-0.1-0.2-0.2v-3.4c0-1.4-0.7-2.2-1.9-2.2c-1.3,0-2.2,1-2.2,1.1v4.5c0,0.1-0.1,0.2-0.2,0.2
		h-0.3c-0.1,0-0.2-0.1-0.2-0.2V200.4z"/>
	<path d="M111,204.7c1.6,0,2.8,1.2,2.8,2.9c0,0.3,0,0.6-0.2,0.6h-5c0.1,1.3,1,2.5,2.4,2.5c0.8,0,1.5-0.3,1.9-0.6
		c0.1-0.1,0.2-0.1,0.3,0l0.2,0.2c0,0.1,0,0.2-0.1,0.3c-0.3,0.3-1.3,0.7-2.3,0.7c-1.9,0-3.1-1.5-3.1-3.3
		C107.9,206.2,109.1,204.7,111,204.7z M113.2,207.6c0-1.2-0.7-2.3-2.1-2.3c-1.4,0-2.3,1-2.4,2.3H113.2z"/>
	<path d="M117.8,207.1c0.7,0,1.4,0.2,1.6,0.3c0-1.4-0.1-2.1-1.4-2.1c-1,0-1.7,0.4-1.9,0.4c-0.1,0-0.2,0-0.2-0.1l-0.1-0.2
		c0-0.1,0-0.2,0.1-0.2c0,0,0.8-0.5,2.1-0.5c1.9,0,2,1.1,2,2.7v3.5c0,0.1-0.1,0.2-0.2,0.2h-0.2c-0.1,0-0.2-0.1-0.2-0.2l-0.1-0.6
		c-0.4,0.4-1.2,0.9-2.2,0.9c-1.2,0-2.1-0.8-2.1-2.1C115.2,208,116.2,207.1,117.8,207.1z M117.3,210.7c1,0,1.8-0.6,2.1-1V208
		c-0.2-0.1-0.8-0.3-1.6-0.3c-1.2,0-2,0.6-2,1.5C115.9,210.1,116.5,210.7,117.3,210.7z"/>
	<path d="M122.7,205.5h-0.7c-0.2,0-0.2-0.1-0.2-0.2V205c0-0.1,0.1-0.2,0.2-0.2h0.7v-1.7c0-0.1,0.1-0.2,0.2-0.2l0.3,0
		c0.1,0,0.2,0.1,0.2,0.2v1.7h2.2c0.1,0,0.2,0.1,0.2,0.2v0.2c0,0.1-0.1,0.2-0.2,0.2h-2.2v4c0,0.7,0.1,1.1,0.8,1.1
		c0.5,0,1.2-0.3,1.4-0.4c0.1-0.1,0.2,0,0.3,0.1l0.1,0.2c0.1,0.1,0,0.2,0,0.3c-0.2,0.2-0.9,0.6-1.8,0.6c-1.3,0-1.4-0.8-1.4-1.8V205.5
		z"/>
	<path d="M127.6,205.1c0-0.1,0.1-0.2,0.2-0.2h0.2c0.1,0,0.2,0.1,0.2,0.2l0.1,0.6c0.2-0.2,0.8-1,2-1c0.5,0,0.8,0.1,1,0.2
		c0.1,0,0.2,0.2,0.2,0.3l-0.1,0.3c0,0.1-0.1,0.1-0.3,0.1c-0.1,0-0.4-0.2-0.8-0.2c-1.2,0-1.8,1-1.9,1.1v4.5c0,0.1-0.1,0.2-0.2,0.2
		h-0.3c-0.1,0-0.2-0.1-0.2-0.2V205.1z"/>
	<path d="M135.2,204.7c1.6,0,2.8,1.2,2.8,2.9c0,0.3,0,0.6-0.2,0.6h-5c0.1,1.3,1,2.5,2.4,2.5c0.8,0,1.5-0.3,1.9-0.6
		c0.1-0.1,0.2-0.1,0.3,0l0.2,0.2c0,0.1,0,0.2-0.1,0.3c-0.3,0.3-1.3,0.7-2.3,0.7c-1.9,0-3.1-1.5-3.1-3.3
		C132.2,206.2,133.3,204.7,135.2,204.7z M137.4,207.6c0-1.2-0.7-2.3-2.1-2.3c-1.4,0-2.3,1-2.4,2.3H137.4z"/>
</g>
<g class="st2">
	<path d="M108.8,223.9c0-0.1,0.1-0.2,0.2-0.2h0.2c0.1,0,0.2,0.1,0.2,0.2l0.1,0.7c0.2-0.2,0.9-1,2.2-1c1,0,1.7,0.4,2.1,1.1
		c0.2-0.3,1.1-1.1,2.4-1.1c1.7,0,2.4,1.1,2.4,2.9v3.4c0,0.1-0.1,0.2-0.2,0.2h-0.3c-0.1,0-0.2-0.1-0.2-0.2v-3.4
		c0-1.4-0.6-2.2-1.8-2.2c-1.2,0-1.9,0.8-2.1,1.1c0.1,0.3,0.1,0.7,0.1,1.1v3.4c0,0.1-0.1,0.2-0.2,0.2h-0.3c-0.1,0-0.2-0.1-0.2-0.2
		v-3.4c0-1.4-0.6-2.2-1.8-2.2c-1.3,0-2,1-2,1.1v4.5c0,0.1-0.1,0.2-0.2,0.2h-0.3c-0.1,0-0.2-0.1-0.2-0.2V223.9z"/>
	<path d="M122.9,225.9c0.7,0,1.4,0.2,1.6,0.3c0-1.4-0.1-2.1-1.4-2.1c-1,0-1.7,0.4-1.9,0.4c-0.1,0-0.2,0-0.2-0.1l-0.1-0.2
		c0-0.1,0-0.2,0.1-0.2c0,0,0.8-0.5,2.1-0.5c1.9,0,2,1.1,2,2.7v3.5c0,0.1-0.1,0.2-0.2,0.2h-0.2c-0.1,0-0.2-0.1-0.2-0.2l-0.1-0.6
		c-0.4,0.4-1.2,0.9-2.2,0.9c-1.2,0-2.1-0.8-2.1-2.1C120.2,226.8,121.2,225.9,122.9,225.9z M122.4,229.5c1,0,1.8-0.6,2.1-1v-1.7
		c-0.2-0.1-0.8-0.3-1.6-0.3c-1.2,0-2,0.6-2,1.5C120.9,228.9,121.5,229.5,122.4,229.5z"/>
	<path d="M127.1,229.2l0.2-0.3c0-0.1,0.2-0.1,0.3,0c0.2,0.1,0.8,0.6,1.7,0.6c0.9,0,1.5-0.5,1.5-1.1c0-0.7-0.7-1-1.8-1.4
		c-1.1-0.4-1.9-0.9-1.9-1.9c0-0.7,0.6-1.6,2.1-1.6c0.8,0,1.5,0.3,1.8,0.5c0.1,0.1,0.1,0.2,0.1,0.3l-0.1,0.2
		c-0.1,0.1-0.2,0.1-0.3,0.1c-0.1-0.1-0.8-0.4-1.4-0.4c-1,0-1.3,0.6-1.3,1c0,0.6,0.6,0.9,1.5,1.3c1.2,0.4,2.2,0.8,2.2,2
		c0,0.9-1,1.7-2.2,1.7c-1.1,0-1.7-0.4-2.1-0.7C127.1,229.3,127,229.3,127.1,229.2z"/>
	<path d="M133.2,219.2c0-0.1,0.1-0.2,0.2-0.2h0.3c0.1,0,0.2,0.1,0.2,0.2v7l3.3-2.4c0.1-0.1,0.2-0.1,0.3-0.1h0.5c0.2,0,0.2,0.2,0,0.3
		l-3.4,2.5l3.8,3.2c0.1,0.1,0,0.3-0.1,0.3h-0.5c-0.1,0-0.2,0-0.3-0.1l-3.6-3.1v3c0,0.1-0.1,0.2-0.2,0.2h-0.3c-0.1,0-0.2-0.1-0.2-0.2
		V219.2z"/>
</g>
<g>
	<g>
		<path class="st3" d="M216.3,86.4c0-27.6-22.3-50-49.8-50.3l0,0h-51.6v157.5h51.6v-56.9C194,136.5,216.3,114.1,216.3,86.4z"/>
		<path class="st3" d="M216.5,91.1c0-24.1-19.5-43.7-43.5-44l0,0h-48.3v137.7H173v-49.7C197.1,134.8,216.5,115.2,216.5,91.1z"/>
		<path class="st4" d="M216,187.9c0,36.5-42,46.8-44.6,44.2s-2.2-4.4-2.3-11.5c0-0.9-6.3-4-6.3-4.9s4.3-5,4.3-5.9
			c0-2-7.9-1.1-7.9-3.3c0-1.4,2.4-7.2,1.3-8.2c-1-1-10.8,3.5-10.2-4c0.3-3.8,11.8-22.7,11.9-26.4c0-2.1-4.7-2.2-5.3-4.6
			c-1.5-6.2-0.1-15,0.3-19.1c0.8-8.2,58.7-19.7,58.7-59.4C216,74.7,216,151.4,216,187.9z"/>
		<path class="st4" d="M216,182.3c0,28.6-32.9,40.9-32.9,40.9l-11.9-75.6c0,0,44.7-15.1,44.7-46.1C216,93.6,216,153.6,216,182.3z"/>
	</g>
</g>
<g class="st2">
	<path d="M243,102.2c0-0.5,0.4-1,1-1h12.1c6.4,0,11.6,5.2,11.6,11.4c0,6.4-5.2,11.6-11.5,11.6h-6.5v12.1c0,0.5-0.5,1-1,1H244
		c-0.6,0-1-0.5-1-1V102.2z M255.7,118c2.9,0,5.3-2.3,5.3-5.4c0-2.8-2.4-5-5.3-5h-6V118H255.7z"/>
	<path d="M266.9,136.1l16.1-34.8c0.2-0.3,0.4-0.6,0.9-0.6h0.5c0.5,0,0.7,0.3,0.9,0.6l15.9,34.8c0.3,0.7-0.1,1.3-0.9,1.3h-4.5
		c-0.8,0-1.1-0.3-1.5-1l-2.5-5.6h-15.4l-2.5,5.6c-0.2,0.5-0.7,1-1.5,1h-4.5C267,137.4,266.6,136.7,266.9,136.1z M289.2,125.1
		l-5.2-11.4h-0.2l-5.1,11.4H289.2z"/>
	<path d="M305.8,102.2c0-0.5,0.4-1,1-1H319c6.4,0,11.6,5.2,11.6,11.4c0,6.4-5.2,11.6-11.5,11.6h-6.5v12.1c0,0.5-0.5,1-1,1h-4.8
		c-0.6,0-1-0.5-1-1L305.8,102.2L305.8,102.2z M318.6,118c2.9,0,5.3-2.3,5.3-5.4c0-2.8-2.4-5-5.3-5h-6V118H318.6z"/>
	<path d="M329.7,136.1l16.1-34.8c0.2-0.3,0.4-0.6,0.9-0.6h0.5c0.5,0,0.7,0.3,0.9,0.6l15.9,34.8c0.3,0.7-0.1,1.3-0.9,1.3h-4.5
		c-0.8,0-1.1-0.3-1.5-1l-2.5-5.6h-15.4l-2.5,5.6c-0.2,0.5-0.7,1-1.5,1h-4.5C329.8,137.4,329.4,136.7,329.7,136.1z M352,125.1
		l-5.2-11.4h-0.2l-5.1,11.4H352z"/>
	<path d="M368.7,102.2c0-0.5,0.4-1,1-1h14.8c6.2,0,11.3,5,11.3,11.1c0,4.8-3.2,8.6-7.6,10.4l7.1,13.1c0.4,0.7,0,1.5-0.9,1.5H389
		c-0.5,0-0.7-0.3-0.8-0.5l-6.9-13.7h-5.7v13.2c0,0.5-0.5,1-1,1h-4.8c-0.6,0-1-0.5-1-1v-34.1H368.7z M383.9,117.7
		c2.7,0,5.1-2.4,5.1-5.3c0-2.7-2.4-5-5.1-5h-8.4v10.3H383.9z"/>
	<path d="M398.4,136.1l16.1-34.8c0.2-0.3,0.4-0.6,0.9-0.6h0.5c0.5,0,0.7,0.3,0.9,0.6l15.9,34.8c0.3,0.7-0.1,1.3-0.9,1.3h-4.5
		c-0.8,0-1.1-0.3-1.5-1l-2.5-5.6h-15.4l-2.5,5.6c-0.2,0.5-0.7,1-1.5,1h-4.5C398.5,137.4,398.1,136.7,398.4,136.1z M420.7,125.1
		l-5.2-11.4h-0.2l-5.1,11.4H420.7z"/>
	<path d="M433.9,135.5l15.4-27.8v-0.2h-12.9c-0.5,0-1-0.5-1-1v-4.3c0-0.5,0.5-1,1-1H458c0.5,0,1,0.5,1,1v0.7l-15.2,28.2v0.1H457
		c0.6,0,1,0.5,1,1v4.3c0,0.5-0.4,1-1,1h-22.1c-0.5,0-1-0.5-1-1V135.5z"/>
	<path d="M461.7,135.5l15.4-27.8v-0.2h-12.9c-0.5,0-1-0.5-1-1v-4.3c0-0.5,0.5-1,1-1h21.6c0.5,0,1,0.5,1,1v0.7l-15.2,28.2v0.1h13.2
		c0.6,0,1,0.5,1,1v4.3c0,0.5-0.4,1-1,1h-22.1c-0.5,0-1-0.5-1-1V135.5z"/>
	<path d="M493,102.2c0-0.5,0.5-1,1-1h4.8c0.5,0,1,0.5,1,1v34.2c0,0.5-0.5,1-1,1H494c-0.5,0-1-0.5-1-1V102.2z"/>
</g>
<g class="st2">
	<path d="M243,158c-0.1-0.3,0-0.5,0.3-0.5h0.7c0.2,0,0.4,0.1,0.4,0.2l1.7,6l0,0l2.6-6.2c0-0.1,0.2-0.2,0.4-0.2h0.1
		c0.2,0,0.3,0.1,0.4,0.2l2.5,6.3l0,0l1.6-6c0-0.1,0.2-0.2,0.4-0.2h0.7c0.3,0,0.4,0.2,0.3,0.5l-2.5,8.6c0,0.1-0.2,0.2-0.4,0.2h-0.1
		c-0.2,0-0.3-0.1-0.4-0.2l-2.8-6.8l-2.7,6.8c0,0.1-0.2,0.2-0.4,0.2h-0.1c-0.2,0-0.3-0.1-0.4-0.2L243,158z"/>
	<path d="M258.6,151.1c0-0.2,0.2-0.4,0.4-0.4h0.7c0.2,0,0.4,0.2,0.4,0.4v9.8l3.9-3.2c0.2-0.2,0.4-0.3,0.5-0.3h1.2
		c0.4,0,0.4,0.4,0.2,0.6l-4.3,3.5l5,4.5c0.2,0.2,0.2,0.6-0.2,0.6h-1.2c-0.2,0-0.4-0.1-0.5-0.2l-4.6-4.4v4.1c0,0.2-0.2,0.4-0.4,0.4
		H259c-0.2,0-0.4-0.2-0.4-0.4V151.1z"/>
	<path d="M268.8,158c-0.1-0.3,0-0.5,0.3-0.5h0.7c0.2,0,0.4,0.1,0.4,0.2l1.7,6l0,0l2.6-6.2c0-0.1,0.2-0.2,0.4-0.2h0.1
		c0.2,0,0.3,0.1,0.4,0.2l2.5,6.3l0,0l1.6-6c0-0.1,0.2-0.2,0.4-0.2h0.7c0.3,0,0.4,0.2,0.3,0.5l-2.5,8.6c0,0.1-0.2,0.2-0.4,0.2l0,0
		c-0.2,0-0.3-0.1-0.4-0.2l-2.8-6.8l-2.7,6.8c0,0.1-0.2,0.2-0.4,0.2h-0.1c-0.2,0-0.3-0.1-0.4-0.2L268.8,158z"/>
	<path d="M283.8,165.3c0.1-0.1,0.2-0.5,0.3-0.6c0.1-0.2,0.4-0.2,0.6-0.1c0,0,1,0.8,2.1,0.8c0.9,0,1.5-0.5,1.5-1.1
		c0-0.8-0.7-1.2-2-1.8c-1.2-0.6-2.6-1.4-2.6-2.9c0-1,0.8-2.4,2.9-2.4c1.2,0,2.1,0.4,2.5,0.7c0.2,0.1,0.3,0.5,0.1,0.7L289,159
		c-0.1,0.2-0.5,0.3-0.7,0.2c0,0-1-0.5-1.8-0.5c-1,0-1.3,0.5-1.3,0.9c0,0.8,0.8,1.1,1.7,1.5c1.6,0.7,3,1.5,3,3.1
		c0,1.3-1.3,2.6-3.1,2.6c-1.5,0-2.5-0.6-3-1C283.8,165.7,283.7,165.5,283.8,165.3z"/>
	<path d="M297.4,157.2c1.4,0,2.4,0.5,3.2,1.6c0.2,0.2,0.1,0.5-0.1,0.6l-0.4,0.4c-0.3,0.3-0.5,0.1-0.7-0.1c-0.5-0.5-1.2-1-2.1-1
		c-1.7,0-3,1.4-3,3.2s1.3,3.3,3,3.3c1.4,0,1.9-0.7,2.4-1.2c0.3-0.3,0.4-0.2,0.7,0l0.2,0.2c0.2,0.2,0.3,0.4,0.2,0.6
		c-0.7,1.1-1.9,1.9-3.5,1.9c-2.5,0-4.7-2-4.7-4.7C292.8,159.4,295,157.2,297.4,157.2z"/>
	<path d="M304.1,152.2c0-0.6,0.5-1.1,1.1-1.1s1.1,0.5,1.1,1.1s-0.5,1.1-1.1,1.1S304.1,152.8,304.1,152.2z M304.5,157.9
		c0-0.2,0.2-0.4,0.4-0.4h0.7c0.2,0,0.4,0.2,0.4,0.4v8.2c0,0.2-0.2,0.4-0.4,0.4h-0.7c-0.2,0-0.4-0.2-0.4-0.4V157.9z"/>
	<path d="M316.9,158.8h-1.2c-0.2,0-0.4-0.2-0.4-0.4v-0.5c0-0.2,0.2-0.4,0.4-0.4h1.2V155c0-0.2,0.2-0.4,0.4-0.4h0.7
		c0.2,0,0.4,0.2,0.4,0.4v2.6h2.6c0.2,0,0.4,0.2,0.4,0.4v0.5c0,0.2-0.2,0.4-0.4,0.4h-2.6v5.3c0,0.9,0.2,1.1,0.8,1.1
		c0.6,0,1.4-0.3,1.7-0.5c0.3-0.2,0.4,0,0.5,0.1l0.3,0.6c0.2,0.3,0.1,0.4-0.2,0.6c-0.3,0.2-1.5,0.8-2.6,0.8c-1.8,0-2.1-1.1-2.1-2.5
		v-5.6H316.9z"/>
	<path d="M325.1,151.1c0-0.2,0.2-0.4,0.4-0.4h0.7c0.2,0,0.4,0.2,0.4,0.4v7.4c0,0,1.2-1.2,3-1.2c2.2,0,3.5,1.4,3.5,4.1v4.8
		c0,0.2-0.2,0.4-0.4,0.4H332c-0.2,0-0.4-0.2-0.4-0.4v-4.8c0-1.7-0.8-2.6-2-2.6c-1.7,0-2.9,1.3-2.9,1.3v6.1c0,0.2-0.2,0.4-0.4,0.4
		h-0.7c-0.2,0-0.4-0.2-0.4-0.4v-15.1H325.1z"/>
	<path d="M341.1,157.2c2.4,0,4.1,1.8,4.1,4.2c0,0.2,0,0.5,0,0.6c0,0.2-0.2,0.4-0.4,0.4h-6.5c0.1,1.5,1.4,3,3,3c1,0,1.7-0.4,2.2-0.7
		c0.3-0.2,0.5-0.3,0.6,0c0.1,0.2,0.2,0.3,0.4,0.5c0.2,0.2,0.2,0.3-0.1,0.6c-0.5,0.4-1.8,1-3.3,1c-2.7,0-4.5-2.2-4.5-4.8
		C336.7,159.5,338.4,157.2,341.1,157.2z M343.7,161.1c-0.1-1.3-1.2-2.5-2.5-2.5c-1.5,0-2.7,1.1-2.9,2.5H343.7z"/>
	<path d="M351.7,160.8c1,0,1.9,0.3,1.9,0.3c0-1.7-0.2-2.5-1.5-2.5c-1.2,0-2.3,0.3-2.7,0.5c-0.2,0.1-0.4,0-0.4-0.2l-0.2-0.6
		c-0.1-0.3,0-0.4,0.2-0.5c0.1-0.1,1.5-0.6,3.2-0.6c2.3,0,2.9,1.2,2.9,3.8v5c0,0.2-0.2,0.4-0.4,0.4h-0.4c-0.2,0-0.3-0.1-0.4-0.3
		l-0.2-0.6c-0.5,0.5-1.4,1.2-2.8,1.2c-1.6,0-2.8-1.2-2.8-3C348.1,162.1,349.4,160.8,351.7,160.8z M351.1,165.4
		c1.1,0,2.1-0.7,2.5-1.3v-1.8c-0.3-0.2-0.9-0.4-1.9-0.4c-1.3,0-2.2,0.6-2.2,1.8C349.5,164.7,350.1,165.4,351.1,165.4z"/>
	<path d="M359.9,158.8h-1.2c-0.2,0-0.4-0.2-0.4-0.4v-0.5c0-0.2,0.2-0.4,0.4-0.4h1.2V155c0-0.2,0.2-0.4,0.4-0.4h0.7
		c0.2,0,0.4,0.2,0.4,0.4v2.6h2.6c0.2,0,0.4,0.2,0.4,0.4v0.5c0,0.2-0.2,0.4-0.4,0.4h-2.6v5.3c0,0.9,0.2,1.1,0.8,1.1
		c0.6,0,1.4-0.3,1.7-0.5c0.3-0.2,0.4,0,0.5,0.1l0.3,0.6c0.2,0.3,0.1,0.4-0.2,0.6c-0.3,0.2-1.5,0.8-2.6,0.8c-1.8,0-2.1-1.1-2.1-2.5
		v-5.6H359.9z"/>
	<path d="M368,157.9c0-0.2,0.2-0.4,0.4-0.4h0.4c0.2,0,0.3,0.1,0.4,0.3l0.2,0.7c0,0,0.8-1.2,2.7-1.2c0.7,0,1.8,0.1,1.6,0.8l-0.3,0.8
		c-0.1,0.3-0.3,0.3-0.5,0.2s-0.5-0.2-0.9-0.2c-1.7,0-2.5,1.3-2.5,1.3v6.1c0,0.2-0.2,0.4-0.4,0.4h-0.7c-0.2,0-0.4-0.2-0.4-0.4
		L368,157.9L368,157.9z"/>
	<path d="M380.4,157.2c2.4,0,4.1,1.8,4.1,4.2c0,0.2,0,0.5,0,0.6c0,0.2-0.2,0.4-0.4,0.4h-6.5c0.1,1.5,1.4,3,3,3c1,0,1.7-0.4,2.2-0.7
		c0.3-0.2,0.5-0.3,0.6,0c0.1,0.2,0.2,0.3,0.4,0.5c0.2,0.2,0.2,0.3-0.1,0.6c-0.5,0.4-1.8,1-3.3,1c-2.7,0-4.5-2.2-4.5-4.8
		C375.9,159.5,377.6,157.2,380.4,157.2z M382.9,161.1c-0.1-1.3-1.2-2.5-2.5-2.5c-1.5,0-2.7,1.1-2.9,2.5H382.9z"/>
	<path d="M395.6,173c0,0.2-0.2,0.4-0.4,0.4h-0.7c-0.2,0-0.4-0.2-0.4-0.4v-15c0-0.2,0.2-0.4,0.4-0.4h0.5c0.2,0,0.3,0.1,0.4,0.3
		l0.2,0.4c0,0,1-1,2.6-1c2.5,0,4.3,2.2,4.3,4.8c0,2.7-1.9,4.7-4.4,4.7c-1.5,0-2.4-0.8-2.4-0.8v7H395.6z M397.8,165.3
		c1.8,0,3-1.4,3-3.2s-1-3.3-2.9-3.3c-1.5,0-2.3,1.1-2.3,1.1v4.7C395.6,164.5,396.6,165.3,397.8,165.3z"/>
	<path d="M405.9,157.9c0-0.2,0.2-0.4,0.4-0.4h0.4c0.2,0,0.3,0.1,0.4,0.3l0.2,0.7c0,0,0.8-1.2,2.7-1.2c0.7,0,1.8,0.1,1.6,0.8
		l-0.3,0.8c-0.1,0.3-0.3,0.3-0.5,0.2s-0.5-0.2-0.9-0.2c-1.7,0-2.5,1.3-2.5,1.3v6.1c0,0.2-0.2,0.4-0.4,0.4h-0.7
		c-0.2,0-0.4-0.2-0.4-0.4L405.9,157.9L405.9,157.9z"/>
	<path d="M418.3,157.2c2.5,0,4.5,2.2,4.5,4.7c0,2.6-2,4.8-4.5,4.8s-4.5-2.2-4.5-4.8C413.8,159.4,415.8,157.2,418.3,157.2z
		 M418.3,165.3c1.7,0,3-1.5,3-3.3s-1.3-3.2-3-3.2s-3,1.5-3,3.2C415.4,163.8,416.7,165.3,418.3,165.3z"/>
	<path d="M430.1,157.2c1.5,0,2.4,0.6,2.4,0.6v-6.7c0-0.2,0.2-0.4,0.4-0.4h0.7c0.2,0,0.4,0.2,0.4,0.4v15c0,0.2-0.2,0.4-0.4,0.4h-0.5
		c-0.2,0-0.3-0.2-0.4-0.4l-0.1-0.6c0,0-1.1,1.2-2.8,1.2c-2.3,0-4.1-2.2-4.1-4.8C425.8,159.3,427.4,157.2,430.1,157.2z M430.1,165.4
		c1.6,0,2.5-1.5,2.5-1.5v-4.5c0,0-1-0.5-2.2-0.5c-2,0-3,1.4-3,3.2C427.4,163.8,428.4,165.4,430.1,165.4z"/>
	<path d="M438.3,157.9c0-0.2,0.2-0.4,0.4-0.4h0.7c0.2,0,0.4,0.2,0.4,0.4v4.8c0,1.7,0.8,2.6,2,2.6c1.7,0,2.7-1.3,2.7-1.3
		c0-0.5,0-1,0-6.1c0-0.2,0.2-0.4,0.4-0.4h0.7c0.2,0,0.4,0.2,0.4,0.4v8.2c0,0.2-0.2,0.4-0.4,0.4h-0.4c-0.2,0-0.3-0.2-0.4-0.4
		l-0.2-0.6c0,0-1.1,1.2-3,1.2c-2.6,0-3.5-1.7-3.5-4.1v-4.7H438.3z"/>
	<path d="M454.4,157.2c1.4,0,2.4,0.5,3.2,1.6c0.2,0.2,0.1,0.5-0.1,0.6l-0.4,0.4c-0.3,0.3-0.5,0.1-0.7-0.1c-0.5-0.5-1.2-1-2.1-1
		c-1.7,0-3,1.4-3,3.2s1.3,3.3,3,3.3c1.4,0,1.9-0.7,2.4-1.2c0.3-0.3,0.4-0.2,0.7,0l0.2,0.2c0.2,0.2,0.3,0.4,0.2,0.6
		c-0.7,1.1-1.9,1.9-3.5,1.9c-2.5,0-4.7-2-4.7-4.7C449.7,159.4,451.9,157.2,454.4,157.2z"/>
	<path d="M462,158.8h-1.2c-0.2,0-0.4-0.2-0.4-0.4v-0.5c0-0.2,0.2-0.4,0.4-0.4h1.2V155c0-0.2,0.2-0.4,0.4-0.4h0.7
		c0.2,0,0.4,0.2,0.4,0.4v2.6h2.6c0.2,0,0.4,0.2,0.4,0.4v0.5c0,0.2-0.2,0.4-0.4,0.4h-2.6v5.3c0,0.9,0.2,1.1,0.8,1.1
		c0.6,0,1.4-0.3,1.7-0.5c0.3-0.2,0.4,0,0.5,0.1l0.3,0.6c0.2,0.3,0.1,0.4-0.2,0.6c-0.3,0.2-1.5,0.8-2.6,0.8c-1.8,0-2.1-1.1-2.1-2.5
		v-5.6H462z"/>
	<path d="M469.9,152.2c0-0.6,0.5-1.1,1.1-1.1s1.1,0.5,1.1,1.1s-0.5,1.1-1.1,1.1C470.3,153.3,469.9,152.8,469.9,152.2z M470.2,157.9
		c0-0.2,0.2-0.4,0.4-0.4h0.7c0.2,0,0.4,0.2,0.4,0.4v8.2c0,0.2-0.2,0.4-0.4,0.4h-0.7c-0.2,0-0.4-0.2-0.4-0.4V157.9z"/>
	<path d="M479.8,157.2c2.5,0,4.5,2.2,4.5,4.7c0,2.6-2,4.8-4.5,4.8s-4.5-2.2-4.5-4.8C475.3,159.4,477.3,157.2,479.8,157.2z
		 M479.8,165.3c1.7,0,3-1.5,3-3.3s-1.3-3.2-3-3.2s-3,1.5-3,3.2C476.9,163.8,478.2,165.3,479.8,165.3z"/>
	<path d="M487.9,157.9c0-0.2,0.2-0.4,0.4-0.4h0.4c0.2,0,0.3,0.1,0.4,0.3l0.2,0.7c0,0,1.3-1.2,3.2-1.2c2.6,0,3.5,1.7,3.5,4.1v4.8
		c0,0.2-0.2,0.4-0.4,0.4h-0.7c-0.2,0-0.4-0.2-0.4-0.4v-4.8c0-1.7-0.8-2.6-2-2.6c-1.7,0-2.9,1.3-2.9,1.3v6.1c0,0.2-0.2,0.4-0.4,0.4
		h-0.7c-0.2,0-0.4-0.2-0.4-0.4v-8.3H487.9z"/>
</g>
<g>
	<g>
		<line class="st0" x1="146.9" y1="136.7" x2="146.9" y2="234.4"/>
		<g>
			<polygon class="st1" points="144.4,138.5 146.9,137.5 149.3,138.5 146.9,132.8 			"/>
		</g>
		<g>
			<path class="st1" d="M146.9,238.4c-0.7-1.9-1.9-4.2-3.1-5.6l3.1,1.1l3.1-1.1C148.7,234.2,147.6,236.5,146.9,238.4z"/>
		</g>
	</g>
</g>
</svg>
