<?xml version="1.0" encoding="utf-8"?>
<!-- Generator: Adobe Illustrator 25.0.0, SVG Export Plug-In . SVG Version: 6.00 Build 0)  -->
<svg version="1.1" id="Layer_1" xmlns="http://www.w3.org/2000/svg" xmlns:xlink="http://www.w3.org/1999/xlink" x="0px" y="0px"
	 width="30.3px" height="56px" viewBox="0 0 30.3 56" style="enable-background:new 0 0 30.3 56;" xml:space="preserve">
<style type="text/css">
	.st0{fill:#FF8500;stroke:#000000;stroke-width:1.1206;stroke-miterlimit:10;}
	.st1{fill:#FF0DDD;stroke:#000000;stroke-width:1.1206;stroke-miterlimit:10;}
</style>
<g>
	<g>
		<path class="st0" d="M28.7,15.2c0-7.4-6-13.4-13.4-13.5l0,0H1.5v42.3h13.9V28.7C22.7,28.6,28.7,22.6,28.7,15.2z"/>
		<path class="st0" d="M28.8,16.4c0-6.5-5.2-11.8-11.7-11.8l0,0h-13v37h13V28.2C23.6,28.1,28.8,22.9,28.8,16.4z"/>
		<path class="st1" d="M28.6,42.4c0,9.8-11.3,12.6-12,11.9s-0.6-1.2-0.6-3.1c0-0.2-1.7-1.1-1.7-1.3c0-0.2,1.2-1.3,1.1-1.6
			c0-0.5-2.1-0.3-2.1-0.9c0-0.4,0.6-1.9,0.4-2.2c-0.3-0.3-2.9,0.9-2.8-1.1c0.1-1,3.2-6.1,3.2-7.1c0-0.5-1.3-0.6-1.4-1.2
			c-0.4-1.7,0-4,0.1-5.1c0.2-2.2,15.8-5.3,15.8-15.9C28.6,12,28.6,32.6,28.6,42.4z"/>
		<path class="st1" d="M28.6,40.9c0,7.7-8.8,11-8.8,11l-3.2-20.3c0,0,12-4.1,12-12.4C28.6,17.1,28.6,33.2,28.6,40.9z"/>
	</g>
</g>
</svg>
